<?xml version="1.0" encoding="utf-8"?>
<!-- Generator: Adobe Illustrator 24.2.0, SVG Export Plug-In . SVG Version: 6.00 Build 0)  -->
<svg version="1.1" id="Layer_1" xmlns="http://www.w3.org/2000/svg" xmlns:xlink="http://www.w3.org/1999/xlink" x="0px" y="0px"
	 viewBox="0 0 149 37" style="enable-background:new 0 0 149 37;" xml:space="preserve">
<style type="text/css">
	.st0{fill:#06AEC0;}
	.st1{fill:#02243F;}
</style>
<g>
	<g>
		<path class="st0" d="M42.9,24.5c-1.2,1.7-3.1,2.9-5.3,3.2c-0.3,0-0.7,0.1-1,0.1c-0.8,0-1.7-0.1-2.4-0.4c-1-0.3-1.9-0.9-2.7-1.6
			c-0.4-0.4-0.8-0.8-1.1-1.2H42.9z"/>
		<path class="st1" d="M50.7,19.6c0,0.5,0,1.1-0.1,1.6c-0.1,1.1-0.4,2.2-0.7,3.2c-0.4,1.2-0.9,2.2-1.6,3.2c-0.8,1.2-1.8,2.3-2.9,3.2
			c-1.1,0.9-2.4,1.7-3.7,2.2h0c-1.3,0.5-2.7,0.9-4.1,1c-0.3,0-0.7,0-1,0c-0.8,0-1.7-0.1-2.5-0.2c-1.1-0.2-2.1-0.5-3.1-1
			c-1-0.4-1.9-1-2.7-1.6c-0.2-0.2-0.4-0.3-0.6-0.5c-0.6-0.5-1.2-1.1-1.8-1.8c-0.4-0.5-0.8-1-1.1-1.5c-0.3-0.5-0.6-1-0.9-1.5
			c-0.3-0.5-0.5-1.1-0.7-1.7c-0.3-0.8-0.5-1.6-0.6-2.5c0-0.3-0.1-0.5-0.1-0.8c-0.1-0.5-0.1-1.1-0.1-1.6c0-0.6,0-1.1,0.1-1.6
			c0.1-1.1,0.4-2.2,0.7-3.2c0.4-1.2,0.9-2.2,1.6-3.2c0.8-1.2,1.8-2.3,2.9-3.2c1.1-0.9,2.4-1.7,3.7-2.2l-1.2,2.2l-1.8,3.2l-1.3,2.3
			c-0.1,0.1-0.2,0.3-0.3,0.5c-0.1,0.2-0.2,0.3-0.2,0.5c-0.5,1-0.8,2.1-0.9,3.2c-0.1,0.5-0.1,1.1-0.1,1.6c0,0.6,0,1.1,0.1,1.6
			c0.1,0.4,0.1,0.9,0.3,1.3c0.2,0.7,0.4,1.3,0.7,1.9c0.3,0.6,0.6,1.1,0.9,1.7c0.4,0.6,0.8,1.1,1.3,1.6c0.3,0.3,0.6,0.6,1,0.9
			c0.8,0.7,1.7,1.2,2.7,1.6c1,0.4,2.1,0.7,3.2,0.7c0.3,0,0.5,0,0.8,0c1.1,0,2.1-0.2,3-0.4c1.8-0.5,3.4-1.5,4.7-2.8
			c0.7-0.7,1.3-1.5,1.8-2.4l0.2-0.3c0.1-0.2,0.2-0.4,0.3-0.5c0.5-1,0.8-2.1,0.9-3.2H36.6c-0.9,0-1.6-0.7-1.6-1.6
			c0-0.3,0.1-0.5,0.2-0.8l0-0.1c0.3-0.5,0.8-0.8,1.4-0.8h14.1C50.7,18.5,50.7,19.1,50.7,19.6z"/>
		<path class="st0" d="M49.2,13c-0.3-0.5-0.6-1-0.9-1.5c-0.3-0.5-0.7-1-1.1-1.5c-0.5-0.6-1.1-1.2-1.8-1.8c-0.2-0.2-0.4-0.3-0.6-0.5
			c-0.8-0.6-1.8-1.2-2.7-1.6c-1-0.4-2-0.8-3.1-1C38.3,5.1,37.4,5,36.6,5c-0.4,0-0.7,0-1,0l-1.8,3.2l-0.2,0.4L32,11.5l-1.8,3.2
			l-0.5,0.8l-0.1,0.2c-0.4,0.7-0.6,1.5-0.8,2.2c-0.1,0.5-0.2,1.1-0.2,1.6s0.1,1.1,0.2,1.6h3.3c-0.2-0.5-0.3-1.1-0.3-1.6
			c0-0.6,0.1-1.1,0.3-1.6c0.1-0.2,0.2-0.5,0.3-0.7l1.4-2.5h16.1C49.7,14.2,49.5,13.6,49.2,13z M35.6,11.5l1.8-3.2
			c1.1,0.1,2.2,0.3,3.2,0.7c1,0.4,1.9,0.9,2.7,1.6c0.3,0.3,0.7,0.6,1,0.9H35.6z"/>
	</g>
	<g>
		<g>
			<path class="st1" d="M55.9,22.7V9.9h4.3c0.8,0,1.5,0.1,2.1,0.2c0.6,0.2,1,0.4,1.4,0.7c0.4,0.3,0.6,0.7,0.8,1.1
				c0.2,0.4,0.3,0.9,0.3,1.4c0,0.3,0,0.6-0.1,0.9c-0.1,0.3-0.2,0.5-0.4,0.8c-0.2,0.2-0.4,0.5-0.7,0.6c-0.3,0.2-0.6,0.4-1,0.5
				c1.7,0.4,2.5,1.3,2.5,2.8c0,0.5-0.1,1-0.3,1.5c-0.2,0.5-0.5,0.9-0.9,1.2c-0.4,0.3-0.9,0.6-1.4,0.8c-0.6,0.2-1.2,0.3-1.9,0.3H55.9
				z M58.2,15.5h1.8c0.8,0,1.4-0.1,1.8-0.4c0.4-0.3,0.6-0.8,0.6-1.4c0-0.7-0.2-1.1-0.5-1.4c-0.4-0.3-0.9-0.4-1.7-0.4h-2V15.5z
				 M58.2,17.1v3.7h2.3c0.4,0,0.8-0.1,1.1-0.2c0.3-0.1,0.5-0.2,0.7-0.4c0.2-0.2,0.3-0.4,0.4-0.6c0.1-0.2,0.1-0.5,0.1-0.8
				c0-0.3,0-0.5-0.1-0.7c-0.1-0.2-0.2-0.4-0.4-0.6c-0.2-0.2-0.4-0.3-0.7-0.4c-0.3-0.1-0.6-0.1-1-0.1H58.2z"/>
			<path class="st1" d="M78.9,16.3c0,0.9-0.2,1.8-0.5,2.6c-0.3,0.8-0.7,1.5-1.3,2.1c-0.5,0.6-1.2,1-2,1.4c-0.8,0.3-1.6,0.5-2.6,0.5
				c-0.9,0-1.8-0.2-2.6-0.5c-0.8-0.3-1.4-0.8-2-1.4c-0.6-0.6-1-1.3-1.3-2.1c-0.3-0.8-0.5-1.7-0.5-2.6c0-0.9,0.2-1.8,0.5-2.6
				c0.3-0.8,0.7-1.5,1.3-2.1c0.6-0.6,1.2-1,2-1.4c0.8-0.3,1.6-0.5,2.6-0.5c0.9,0,1.8,0.2,2.6,0.5c0.8,0.3,1.4,0.8,2,1.4
				c0.5,0.6,1,1.3,1.3,2.1C78.8,14.5,78.9,15.4,78.9,16.3z M76.6,16.3c0-0.7-0.1-1.3-0.3-1.9c-0.2-0.6-0.4-1-0.8-1.4
				c-0.3-0.4-0.7-0.7-1.2-0.9c-0.5-0.2-1-0.3-1.6-0.3c-0.6,0-1.1,0.1-1.6,0.3c-0.5,0.2-0.9,0.5-1.2,0.9s-0.6,0.9-0.8,1.4
				c-0.2,0.6-0.3,1.2-0.3,1.9c0,0.7,0.1,1.3,0.3,1.9c0.2,0.6,0.4,1,0.8,1.4s0.8,0.7,1.2,0.9c0.5,0.2,1,0.3,1.6,0.3
				c0.6,0,1.1-0.1,1.6-0.3c0.5-0.2,0.9-0.5,1.2-0.9c0.3-0.4,0.6-0.9,0.8-1.4C76.5,17.7,76.6,17,76.6,16.3z"/>
			<path class="st1" d="M83.1,17.7v5h-2.3V9.9h3.8c0.8,0,1.6,0.1,2.2,0.3c0.6,0.2,1.1,0.4,1.5,0.8c0.4,0.3,0.7,0.7,0.8,1.2
				s0.3,0.9,0.3,1.5c0,0.4-0.1,0.8-0.2,1.2c-0.1,0.4-0.3,0.7-0.5,1c-0.2,0.3-0.5,0.6-0.9,0.8c-0.3,0.2-0.7,0.4-1.2,0.6
				c0.3,0.2,0.5,0.4,0.8,0.7l3.1,4.7h-2.1c-0.2,0-0.4,0-0.5-0.1c-0.1-0.1-0.3-0.2-0.4-0.4l-2.6-4.1c-0.1-0.2-0.2-0.3-0.3-0.3
				c-0.1-0.1-0.3-0.1-0.5-0.1H83.1z M83.1,16h1.4c0.4,0,0.8-0.1,1.1-0.2c0.3-0.1,0.6-0.3,0.8-0.5c0.2-0.2,0.4-0.4,0.5-0.7
				c0.1-0.3,0.2-0.6,0.2-0.9c0-0.6-0.2-1.1-0.6-1.5c-0.4-0.3-1-0.5-1.9-0.5h-1.5V16z"/>
			<path class="st1" d="M93.4,10c0.1,0,0.1,0,0.2,0.1c0.1,0,0.1,0.1,0.2,0.1c0.1,0.1,0.1,0.1,0.2,0.2l6.5,8.5c0-0.2,0-0.4,0-0.6
				c0-0.2,0-0.4,0-0.6V9.9h2v12.8h-1.2c-0.2,0-0.3,0-0.5-0.1c-0.1-0.1-0.2-0.2-0.4-0.3l-6.5-8.5c0,0.2,0,0.4,0,0.6
				c0,0.2,0,0.4,0,0.5v7.8h-2V9.9h1.2C93.3,9.9,93.3,10,93.4,10z"/>
			<path class="st1" d="M112.7,9.9v1.9h-5.5v3.5h4.3v1.8h-4.3v3.6h5.5v1.9h-7.8V9.9H112.7z"/>
			<path class="st1" d="M126.6,16.3c0,0.9-0.2,1.8-0.5,2.6c-0.3,0.8-0.7,1.5-1.3,2.1c-0.5,0.6-1.2,1-2,1.4c-0.8,0.3-1.6,0.5-2.6,0.5
				c-0.9,0-1.8-0.2-2.6-0.5c-0.8-0.3-1.4-0.8-2-1.4c-0.6-0.6-1-1.3-1.3-2.1c-0.3-0.8-0.5-1.7-0.5-2.6c0-0.9,0.2-1.8,0.5-2.6
				c0.3-0.8,0.7-1.5,1.3-2.1c0.6-0.6,1.2-1,2-1.4c0.8-0.3,1.6-0.5,2.6-0.5c0.9,0,1.8,0.2,2.6,0.5c0.8,0.3,1.4,0.8,2,1.4
				c0.5,0.6,1,1.3,1.3,2.1C126.4,14.5,126.6,15.4,126.6,16.3z M124.2,16.3c0-0.7-0.1-1.3-0.3-1.9c-0.2-0.6-0.4-1-0.8-1.4
				c-0.3-0.4-0.7-0.7-1.2-0.9c-0.5-0.2-1-0.3-1.6-0.3c-0.6,0-1.1,0.1-1.6,0.3c-0.5,0.2-0.9,0.5-1.2,0.9s-0.6,0.9-0.8,1.4
				c-0.2,0.6-0.3,1.2-0.3,1.9c0,0.7,0.1,1.3,0.3,1.9c0.2,0.6,0.4,1,0.8,1.4s0.8,0.7,1.2,0.9c0.5,0.2,1,0.3,1.6,0.3
				c0.6,0,1.1-0.1,1.6-0.3c0.5-0.2,0.9-0.5,1.2-0.9c0.3-0.4,0.6-0.9,0.8-1.4C124.1,17.7,124.2,17,124.2,16.3z"/>
		</g>
		<g>
			<path class="st0" d="M58,29.2c0.1,0,0.3,0,0.4,0c0.1,0,0.2,0,0.3-0.1c0.1,0,0.2-0.1,0.3-0.1c0.1,0,0.2-0.1,0.3-0.1v-1.2h-0.8
				c0,0,0,0-0.1,0c0,0,0,0,0,0v-0.2h1.2V29c-0.1,0.1-0.2,0.1-0.3,0.2c-0.1,0.1-0.2,0.1-0.4,0.1c-0.1,0-0.3,0.1-0.4,0.1
				c-0.1,0-0.3,0-0.5,0c-0.3,0-0.6-0.1-0.8-0.2c-0.2-0.1-0.5-0.3-0.6-0.4c-0.2-0.2-0.3-0.4-0.4-0.7c-0.1-0.3-0.1-0.6-0.1-0.9
				c0-0.3,0-0.6,0.1-0.9s0.2-0.5,0.4-0.7c0.2-0.2,0.4-0.3,0.7-0.4C57.4,25,57.7,25,58,25c0.2,0,0.3,0,0.4,0c0.1,0,0.3,0.1,0.4,0.1
				c0.1,0,0.2,0.1,0.3,0.2s0.2,0.1,0.3,0.2l-0.1,0.1c0,0,0,0-0.1,0c0,0,0,0-0.1,0c0,0-0.1,0-0.1-0.1c-0.1,0-0.1-0.1-0.2-0.1
				c-0.1,0-0.2-0.1-0.4-0.1c-0.1,0-0.3-0.1-0.5-0.1c-0.3,0-0.5,0-0.7,0.1c-0.2,0.1-0.4,0.2-0.6,0.4c-0.2,0.2-0.3,0.4-0.4,0.6
				c-0.1,0.2-0.1,0.5-0.1,0.8c0,0.3,0,0.6,0.1,0.8c0.1,0.2,0.2,0.5,0.4,0.6c0.2,0.2,0.3,0.3,0.5,0.4C57.5,29.1,57.7,29.2,58,29.2z"
				/>
			<path class="st0" d="M62.6,29.1h2v0.3h-2.3V25h0.3V29.1z"/>
			<path class="st0" d="M70.4,27.2c0,0.3,0,0.6-0.1,0.9s-0.2,0.5-0.4,0.7s-0.4,0.3-0.6,0.4c-0.2,0.1-0.5,0.2-0.8,0.2
				c-0.3,0-0.6-0.1-0.8-0.2c-0.2-0.1-0.5-0.3-0.6-0.4c-0.2-0.2-0.3-0.4-0.4-0.7s-0.1-0.6-0.1-0.9c0-0.3,0-0.6,0.1-0.9
				c0.1-0.3,0.2-0.5,0.4-0.7c0.2-0.2,0.4-0.3,0.6-0.5c0.2-0.1,0.5-0.2,0.8-0.2c0.3,0,0.6,0.1,0.8,0.2c0.2,0.1,0.5,0.3,0.6,0.5
				c0.2,0.2,0.3,0.4,0.4,0.7C70.4,26.6,70.4,26.9,70.4,27.2z M70.1,27.2c0-0.3,0-0.6-0.1-0.8c-0.1-0.2-0.2-0.4-0.3-0.6
				s-0.3-0.3-0.5-0.4s-0.4-0.1-0.7-0.1c-0.2,0-0.5,0-0.7,0.1s-0.4,0.2-0.5,0.4c-0.1,0.2-0.3,0.4-0.3,0.6c-0.1,0.2-0.1,0.5-0.1,0.8
				c0,0.3,0,0.6,0.1,0.8c0.1,0.2,0.2,0.4,0.3,0.6c0.1,0.2,0.3,0.3,0.5,0.4s0.4,0.1,0.7,0.1c0.3,0,0.5,0,0.7-0.1s0.4-0.2,0.5-0.4
				s0.3-0.4,0.3-0.6C70.1,27.8,70.1,27.5,70.1,27.2z"/>
			<path class="st0" d="M73.1,29.4V25h1.2c0.2,0,0.4,0,0.6,0.1c0.2,0,0.3,0.1,0.4,0.2c0.1,0.1,0.2,0.2,0.3,0.3
				c0.1,0.1,0.1,0.3,0.1,0.5c0,0.1,0,0.2-0.1,0.3c0,0.1-0.1,0.2-0.2,0.3c-0.1,0.1-0.2,0.2-0.3,0.2c-0.1,0.1-0.2,0.1-0.4,0.2
				c0.3,0.1,0.6,0.2,0.8,0.3c0.2,0.2,0.3,0.4,0.3,0.7c0,0.2,0,0.4-0.1,0.5c-0.1,0.1-0.2,0.3-0.3,0.4c-0.1,0.1-0.3,0.2-0.4,0.2
				c-0.2,0.1-0.4,0.1-0.6,0.1H73.1z M73.4,27.1h0.9c0.2,0,0.4,0,0.5-0.1c0.1-0.1,0.2-0.1,0.3-0.2c0.1-0.1,0.2-0.2,0.2-0.3
				s0.1-0.2,0.1-0.3c0-0.3-0.1-0.5-0.3-0.7c-0.2-0.2-0.5-0.2-0.8-0.2h-0.9V27.1z M73.4,27.3v1.8h1c0.4,0,0.6-0.1,0.8-0.2
				c0.2-0.2,0.3-0.4,0.3-0.7c0-0.1,0-0.3-0.1-0.4c-0.1-0.1-0.1-0.2-0.2-0.3c-0.1-0.1-0.2-0.1-0.3-0.2c-0.1,0-0.3-0.1-0.5-0.1H73.4z"
				/>
			<path class="st0" d="M81.7,29.4h-0.2c0,0-0.1,0-0.1,0c0,0,0,0,0-0.1L80.8,28h-2.1l-0.5,1.3c0,0,0,0,0,0.1s0,0-0.1,0h-0.2l1.7-4.4
				h0.3L81.7,29.4z M78.9,27.8h1.9l-0.9-2.2c0,0,0-0.1,0-0.1c0,0,0-0.1,0-0.1c0,0,0,0.1,0,0.1c0,0,0,0.1,0,0.1L78.9,27.8z"/>
			<path class="st0" d="M84.3,29.1h2v0.3H84V25h0.3V29.1z"/>
			<path class="st0" d="M91.8,27.6v1.8h-0.3V25h1.1c0.5,0,0.9,0.1,1.1,0.3s0.4,0.5,0.4,1c0,0.2,0,0.4-0.1,0.5
				c-0.1,0.2-0.2,0.3-0.3,0.4c-0.1,0.1-0.3,0.2-0.5,0.3c-0.2,0.1-0.4,0.1-0.6,0.1H91.8z M91.8,27.4h0.8c0.2,0,0.4,0,0.5-0.1
				c0.1-0.1,0.3-0.1,0.4-0.2s0.2-0.2,0.2-0.3c0.1-0.1,0.1-0.3,0.1-0.4c0-0.3-0.1-0.6-0.3-0.8c-0.2-0.2-0.5-0.3-0.9-0.3h-0.8V27.4z"
				/>
			<path class="st0" d="M99.1,25v0.3h-2.2V27h1.8v0.3h-1.8v1.8h2.2v0.3h-2.5V25H99.1z"/>
			<path class="st0" d="M102.1,27.4v2h-0.3V25h1.1c0.5,0,0.8,0.1,1.1,0.3c0.2,0.2,0.4,0.5,0.4,0.9c0,0.2,0,0.3-0.1,0.5
				c-0.1,0.1-0.1,0.3-0.2,0.4c-0.1,0.1-0.2,0.2-0.4,0.3c-0.1,0.1-0.3,0.1-0.5,0.1c0,0,0.1,0.1,0.1,0.1l1.4,1.9h-0.3c0,0-0.1,0-0.1,0
				c0,0,0,0-0.1-0.1l-1.3-1.8c0,0-0.1-0.1-0.1-0.1c0,0-0.1,0-0.2,0H102.1z M102.1,27.2h0.7c0.2,0,0.4,0,0.5-0.1
				c0.1,0,0.3-0.1,0.4-0.2s0.2-0.2,0.2-0.3c0.1-0.1,0.1-0.3,0.1-0.4c0-0.3-0.1-0.5-0.3-0.7c-0.2-0.1-0.5-0.2-0.9-0.2h-0.8V27.2z"/>
			<path class="st0" d="M109.2,25.5C109.1,25.6,109.1,25.6,109.2,25.5c-0.1,0.1-0.1,0-0.2,0c0,0-0.1-0.1-0.2-0.1
				c-0.1,0-0.2-0.1-0.3-0.1s-0.2-0.1-0.4-0.1c-0.2,0-0.3,0-0.4,0.1c-0.1,0-0.2,0.1-0.3,0.2c-0.1,0.1-0.1,0.2-0.2,0.3
				c0,0.1-0.1,0.2-0.1,0.3c0,0.1,0,0.3,0.1,0.4c0.1,0.1,0.1,0.2,0.2,0.2c0.1,0.1,0.2,0.1,0.3,0.2c0.1,0,0.3,0.1,0.4,0.1
				c0.1,0,0.3,0.1,0.4,0.1c0.1,0.1,0.2,0.1,0.3,0.2c0.1,0.1,0.2,0.2,0.2,0.3c0.1,0.1,0.1,0.3,0.1,0.4c0,0.2,0,0.4-0.1,0.5
				c-0.1,0.2-0.1,0.3-0.3,0.4c-0.1,0.1-0.3,0.2-0.4,0.3c-0.2,0.1-0.4,0.1-0.6,0.1c-0.3,0-0.5-0.1-0.7-0.2c-0.2-0.1-0.4-0.2-0.5-0.4
				l0.1-0.1c0,0,0.1,0,0.1,0c0,0,0,0,0.1,0c0,0,0.1,0.1,0.1,0.1c0,0,0.1,0.1,0.1,0.1c0.1,0,0.1,0.1,0.2,0.1c0.1,0,0.2,0.1,0.3,0.1
				c0.1,0,0.2,0,0.3,0c0.2,0,0.3,0,0.4-0.1c0.1-0.1,0.2-0.1,0.3-0.2c0.1-0.1,0.2-0.2,0.2-0.3c0-0.1,0.1-0.3,0.1-0.4
				c0-0.2,0-0.3-0.1-0.4c-0.1-0.1-0.1-0.2-0.2-0.2c-0.1-0.1-0.2-0.1-0.3-0.2c-0.1,0-0.3-0.1-0.4-0.1c-0.1,0-0.3-0.1-0.4-0.1
				c-0.1-0.1-0.2-0.1-0.3-0.2c-0.1-0.1-0.2-0.2-0.2-0.3c-0.1-0.1-0.1-0.3-0.1-0.5c0-0.1,0-0.3,0.1-0.4c0.1-0.1,0.1-0.3,0.2-0.4
				c0.1-0.1,0.2-0.2,0.4-0.2c0.2-0.1,0.3-0.1,0.5-0.1c0.2,0,0.4,0,0.6,0.1c0.2,0.1,0.3,0.2,0.5,0.3L109.2,25.5z"/>
			<path class="st0" d="M115,29.4h-0.2c0,0-0.1,0-0.1,0c0,0,0,0,0-0.1l-0.5-1.3h-2.1l-0.5,1.3c0,0,0,0,0,0.1c0,0,0,0-0.1,0h-0.2
				L113,25h0.3L115,29.4z M112.2,27.8h1.9l-0.9-2.2c0,0,0-0.1,0-0.1c0,0,0-0.1,0-0.1c0,0,0,0.1,0,0.1c0,0,0,0.1,0,0.1L112.2,27.8z"
				/>
			<path class="st0" d="M120.9,27.2c0,0.3,0,0.6-0.1,0.9c-0.1,0.3-0.2,0.5-0.4,0.7c-0.2,0.2-0.4,0.3-0.6,0.4
				c-0.2,0.1-0.5,0.2-0.8,0.2h-1.5V25h1.5c0.3,0,0.6,0.1,0.8,0.2c0.2,0.1,0.5,0.2,0.6,0.4c0.2,0.2,0.3,0.4,0.4,0.7
				C120.8,26.6,120.9,26.9,120.9,27.2z M120.6,27.2c0-0.3,0-0.6-0.1-0.8c-0.1-0.2-0.2-0.4-0.3-0.6c-0.1-0.2-0.3-0.3-0.5-0.4
				c-0.2-0.1-0.4-0.1-0.7-0.1h-1.2v3.8h1.2c0.3,0,0.5,0,0.7-0.1s0.4-0.2,0.5-0.4c0.1-0.2,0.3-0.4,0.3-0.6
				C120.5,27.8,120.6,27.5,120.6,27.2z"/>
			<path class="st0" d="M126.6,29.4h-0.2c0,0-0.1,0-0.1,0c0,0,0,0,0-0.1l-0.5-1.3h-2.1l-0.5,1.3c0,0,0,0,0,0.1c0,0,0,0-0.1,0h-0.2
				l1.7-4.4h0.3L126.6,29.4z M123.8,27.8h1.9l-0.9-2.2c0,0,0-0.1,0-0.1c0,0,0-0.1,0-0.1c0,0,0,0.1,0,0.1c0,0,0,0.1,0,0.1L123.8,27.8
				z"/>
		</g>
	</g>
</g>
</svg>
